<?xml version="1.0" encoding="UTF-8" standalone="no"?>
<!DOCTYPE svg PUBLIC "-//W3C//DTD SVG 1.1//EN"
 "http://www.w3.org/Graphics/SVG/1.1/DTD/svg11.dtd">
<!-- Generated by graphviz version 2.40.1 (20161225.0304)
 -->
<!-- Title: G Pages: 1 -->
<svg width="1122pt" height="623pt"
 viewBox="0.00 0.00 1122.13 623.23" xmlns="http://www.w3.org/2000/svg" xmlns:xlink="http://www.w3.org/1999/xlink">
<g id="graph0" class="graph" transform="scale(1 1) rotate(0) translate(21.6 601.6317)">
<title>G</title>
<polygon fill="#111111" stroke="transparent" points="-21.6,21.6 -21.6,-601.6317 1100.5277,-601.6317 1100.5277,21.6 -21.6,21.6"/>
<!-- cli/aggregator.ts -->
<g id="node1" class="node">
<title>cli/aggregator.ts</title>
<path fill="none" stroke="#c6c5fe" d="M475.8548,-436.5187C475.8548,-436.5187 375.8396,-436.5187 375.8396,-436.5187 372.1729,-436.5187 368.5062,-432.852 368.5062,-429.1854 368.5062,-429.1854 368.5062,-421.852 368.5062,-421.852 368.5062,-418.1854 372.1729,-414.5187 375.8396,-414.5187 375.8396,-414.5187 475.8548,-414.5187 475.8548,-414.5187 479.5214,-414.5187 483.1881,-418.1854 483.1881,-421.852 483.1881,-421.852 483.1881,-429.1854 483.1881,-429.1854 483.1881,-432.852 479.5214,-436.5187 475.8548,-436.5187"/>
<text text-anchor="middle" x="425.8472" y="-421.3187" font-family="Arial" font-size="14.00" fill="#c6c5fe">cli/aggregator.ts</text>
</g>
<!-- cli/archive_trace.ts -->
<g id="node2" class="node">
<title>cli/archive_trace.ts</title>
<path fill="none" stroke="#c6c5fe" d="M643.8303,-494.5187C643.8303,-494.5187 526.6356,-494.5187 526.6356,-494.5187 522.9689,-494.5187 519.3022,-490.852 519.3022,-487.1854 519.3022,-487.1854 519.3022,-479.852 519.3022,-479.852 519.3022,-476.1854 522.9689,-472.5187 526.6356,-472.5187 526.6356,-472.5187 643.8303,-472.5187 643.8303,-472.5187 647.4969,-472.5187 651.1636,-476.1854 651.1636,-479.852 651.1636,-479.852 651.1636,-487.1854 651.1636,-487.1854 651.1636,-490.852 647.4969,-494.5187 643.8303,-494.5187"/>
<text text-anchor="middle" x="585.2329" y="-479.3187" font-family="Arial" font-size="14.00" fill="#c6c5fe">cli/archive_trace.ts</text>
</g>
<!-- cli/aggregator.ts&#45;&gt;cli/archive_trace.ts -->
<g id="edge1" class="edge">
<title>cli/aggregator.ts&#45;&gt;cli/archive_trace.ts</title>
<path fill="none" stroke="#757575" d="M456.2016,-436.5646C481.4604,-445.7562 517.6213,-458.915 545.2391,-468.9651"/>
<polygon fill="#757575" stroke="#757575" points="544.3975,-472.3833 554.9915,-472.514 546.7912,-465.8053 544.3975,-472.3833"/>
</g>
<!-- cli/metadata.ts -->
<g id="node3" class="node">
<title>cli/metadata.ts</title>
<path fill="none" stroke="#cfffac" d="M631.1616,-436.5187C631.1616,-436.5187 539.3042,-436.5187 539.3042,-436.5187 535.6375,-436.5187 531.9709,-432.852 531.9709,-429.1854 531.9709,-429.1854 531.9709,-421.852 531.9709,-421.852 531.9709,-418.1854 535.6375,-414.5187 539.3042,-414.5187 539.3042,-414.5187 631.1616,-414.5187 631.1616,-414.5187 634.8283,-414.5187 638.495,-418.1854 638.495,-421.852 638.495,-421.852 638.495,-429.1854 638.495,-429.1854 638.495,-432.852 634.8283,-436.5187 631.1616,-436.5187"/>
<text text-anchor="middle" x="585.2329" y="-421.3187" font-family="Arial" font-size="14.00" fill="#cfffac">cli/metadata.ts</text>
</g>
<!-- cli/aggregator.ts&#45;&gt;cli/metadata.ts -->
<g id="edge2" class="edge">
<title>cli/aggregator.ts&#45;&gt;cli/metadata.ts</title>
<path fill="none" stroke="#757575" d="M483.3891,-425.5187C495.913,-425.5187 509.2298,-425.5187 521.962,-425.5187"/>
<polygon fill="#757575" stroke="#757575" points="522.0213,-429.0188 532.0213,-425.5187 522.0213,-422.0188 522.0213,-429.0188"/>
</g>
<!-- trace/cpuprofile.ts -->
<g id="node4" class="node">
<title>trace/cpuprofile.ts</title>
<path fill="none" stroke="#c6c5fe" d="M641.3966,-339.5187C641.3966,-339.5187 529.0692,-339.5187 529.0692,-339.5187 525.4025,-339.5187 521.7358,-335.852 521.7358,-332.1854 521.7358,-332.1854 521.7358,-324.852 521.7358,-324.852 521.7358,-321.1854 525.4025,-317.5187 529.0692,-317.5187 529.0692,-317.5187 641.3966,-317.5187 641.3966,-317.5187 645.0633,-317.5187 648.73,-321.1854 648.73,-324.852 648.73,-324.852 648.73,-332.1854 648.73,-332.1854 648.73,-335.852 645.0633,-339.5187 641.3966,-339.5187"/>
<text text-anchor="middle" x="585.2329" y="-324.3187" font-family="Arial" font-size="14.00" fill="#c6c5fe">trace/cpuprofile.ts</text>
</g>
<!-- cli/aggregator.ts&#45;&gt;trace/cpuprofile.ts -->
<g id="edge3" class="edge">
<title>cli/aggregator.ts&#45;&gt;trace/cpuprofile.ts</title>
<path fill="none" stroke="#757575" d="M444.1307,-414.3916C472.0841,-397.3796 525.6144,-364.8017 558.1044,-345.0287"/>
<polygon fill="#757575" stroke="#757575" points="559.9488,-348.0035 566.6716,-339.8149 556.3096,-342.0238 559.9488,-348.0035"/>
</g>
<!-- cli/trace&#45;utils.ts -->
<g id="node5" class="node">
<title>cli/trace&#45;utils.ts</title>
<path fill="none" stroke="#c6c5fe" d="M842.3272,-494.5187C842.3272,-494.5187 748.8476,-494.5187 748.8476,-494.5187 745.181,-494.5187 741.5143,-490.852 741.5143,-487.1854 741.5143,-487.1854 741.5143,-479.852 741.5143,-479.852 741.5143,-476.1854 745.181,-472.5187 748.8476,-472.5187 748.8476,-472.5187 842.3272,-472.5187 842.3272,-472.5187 845.9938,-472.5187 849.6605,-476.1854 849.6605,-479.852 849.6605,-479.852 849.6605,-487.1854 849.6605,-487.1854 849.6605,-490.852 845.9938,-494.5187 842.3272,-494.5187"/>
<text text-anchor="middle" x="795.5874" y="-479.3187" font-family="Arial" font-size="14.00" fill="#c6c5fe">cli/trace&#45;utils.ts</text>
</g>
<!-- cli/archive_trace.ts&#45;&gt;cli/trace&#45;utils.ts -->
<g id="edge4" class="edge">
<title>cli/archive_trace.ts&#45;&gt;cli/trace&#45;utils.ts</title>
<path fill="none" stroke="#757575" d="M651.2132,-483.5187C676.7347,-483.5187 705.8492,-483.5187 731.2159,-483.5187"/>
<polygon fill="#757575" stroke="#757575" points="731.4682,-487.0188 741.4682,-483.5187 731.4682,-480.0188 731.4682,-487.0188"/>
</g>
<!-- trace/trace_event.ts -->
<g id="node16" class="node">
<title>trace/trace_event.ts</title>
<path fill="none" stroke="#cfffac" d="M1071.57,-187.5187C1071.57,-187.5187 947.3343,-187.5187 947.3343,-187.5187 943.6676,-187.5187 940.001,-183.852 940.001,-180.1854 940.001,-180.1854 940.001,-172.852 940.001,-172.852 940.001,-169.1854 943.6676,-165.5187 947.3343,-165.5187 947.3343,-165.5187 1071.57,-165.5187 1071.57,-165.5187 1075.2367,-165.5187 1078.9033,-169.1854 1078.9033,-172.852 1078.9033,-172.852 1078.9033,-180.1854 1078.9033,-180.1854 1078.9033,-183.852 1075.2367,-187.5187 1071.57,-187.5187"/>
<text text-anchor="middle" x="1009.4521" y="-172.3187" font-family="Arial" font-size="14.00" fill="#cfffac">trace/trace_event.ts</text>
</g>
<!-- trace/cpuprofile.ts&#45;&gt;trace/trace_event.ts -->
<g id="edge22" class="edge">
<title>trace/cpuprofile.ts&#45;&gt;trace/trace_event.ts</title>
<path fill="none" stroke="#757575" d="M648.7503,-337.4665C716.0561,-343.8893 823.5172,-345.2022 903.9766,-303.5187 950.162,-279.5915 983.8727,-225.7627 999.5844,-196.4534"/>
<polygon fill="#757575" stroke="#757575" points="1002.7144,-198.0204 1004.2147,-187.5323 996.5014,-194.7956 1002.7144,-198.0204"/>
</g>
<!-- cli/conditions.ts -->
<g id="node9" class="node">
<title>cli/conditions.ts</title>
<path fill="none" stroke="#cfffac" d="M1057.5495,-494.5187C1057.5495,-494.5187 961.3548,-494.5187 961.3548,-494.5187 957.6881,-494.5187 954.0215,-490.852 954.0215,-487.1854 954.0215,-487.1854 954.0215,-479.852 954.0215,-479.852 954.0215,-476.1854 957.6881,-472.5187 961.3548,-472.5187 961.3548,-472.5187 1057.5495,-472.5187 1057.5495,-472.5187 1061.2162,-472.5187 1064.8828,-476.1854 1064.8828,-479.852 1064.8828,-479.852 1064.8828,-487.1854 1064.8828,-487.1854 1064.8828,-490.852 1061.2162,-494.5187 1057.5495,-494.5187"/>
<text text-anchor="middle" x="1009.4521" y="-479.3187" font-family="Arial" font-size="14.00" fill="#cfffac">cli/conditions.ts</text>
</g>
<!-- cli/trace&#45;utils.ts&#45;&gt;cli/conditions.ts -->
<g id="edge13" class="edge">
<title>cli/trace&#45;utils.ts&#45;&gt;cli/conditions.ts</title>
<path fill="none" stroke="#757575" d="M849.831,-483.5187C878.2803,-483.5187 913.363,-483.5187 943.3864,-483.5187"/>
<polygon fill="#757575" stroke="#757575" points="943.7759,-487.0188 953.7759,-483.5187 943.7759,-480.0188 943.7759,-487.0188"/>
</g>
<!-- cli/cli.ts -->
<g id="node6" class="node">
<title>cli/cli.ts</title>
<path fill="none" stroke="#c6c5fe" d="M173.156,-474.5187C173.156,-474.5187 126.6018,-474.5187 126.6018,-474.5187 122.9351,-474.5187 119.2685,-470.852 119.2685,-467.1854 119.2685,-467.1854 119.2685,-459.852 119.2685,-459.852 119.2685,-456.1854 122.9351,-452.5187 126.6018,-452.5187 126.6018,-452.5187 173.156,-452.5187 173.156,-452.5187 176.8227,-452.5187 180.4894,-456.1854 180.4894,-459.852 180.4894,-459.852 180.4894,-467.1854 180.4894,-467.1854 180.4894,-470.852 176.8227,-474.5187 173.156,-474.5187"/>
<text text-anchor="middle" x="149.8789" y="-459.3187" font-family="Arial" font-size="14.00" fill="#c6c5fe">cli/cli.ts</text>
</g>
<!-- cli/cli.ts&#45;&gt;cli/aggregator.ts -->
<g id="edge5" class="edge">
<title>cli/cli.ts&#45;&gt;cli/aggregator.ts</title>
<path fill="none" stroke="#757575" d="M168.1197,-452.4192C184.9308,-442.8832 210.9249,-429.8536 235.5098,-424.5187 275.5071,-415.8393 321.3549,-415.7924 358.0299,-418.0565"/>
<polygon fill="#757575" stroke="#757575" points="357.9016,-421.5559 368.1184,-418.7512 358.3825,-414.5724 357.9016,-421.5559"/>
</g>
<!-- cli/cli.ts&#45;&gt;cli/archive_trace.ts -->
<g id="edge6" class="edge">
<title>cli/cli.ts&#45;&gt;cli/archive_trace.ts</title>
<path fill="none" stroke="#757575" d="M180.4922,-464.9251C248.0678,-468.0295 411.6924,-475.5463 508.9463,-480.0141"/>
<polygon fill="#757575" stroke="#757575" points="508.8648,-483.514 519.0149,-480.4767 509.1861,-476.5214 508.8648,-483.514"/>
</g>
<!-- cli/reporter.ts -->
<g id="node7" class="node">
<title>cli/reporter.ts</title>
<path fill="none" stroke="#c6c5fe" d="M324.7796,-533.5187C324.7796,-533.5187 243.157,-533.5187 243.157,-533.5187 239.4903,-533.5187 235.8236,-529.852 235.8236,-526.1854 235.8236,-526.1854 235.8236,-518.852 235.8236,-518.852 235.8236,-515.1854 239.4903,-511.5187 243.157,-511.5187 243.157,-511.5187 324.7796,-511.5187 324.7796,-511.5187 328.4462,-511.5187 332.1129,-515.1854 332.1129,-518.852 332.1129,-518.852 332.1129,-526.1854 332.1129,-526.1854 332.1129,-529.852 328.4462,-533.5187 324.7796,-533.5187"/>
<text text-anchor="middle" x="283.9683" y="-518.3187" font-family="Arial" font-size="14.00" fill="#c6c5fe">cli/reporter.ts</text>
</g>
<!-- cli/cli.ts&#45;&gt;cli/reporter.ts -->
<g id="edge7" class="edge">
<title>cli/cli.ts&#45;&gt;cli/reporter.ts</title>
<path fill="none" stroke="#757575" d="M175.1001,-474.6162C196.1702,-483.8871 226.416,-497.1954 249.6829,-507.433"/>
<polygon fill="#757575" stroke="#757575" points="248.2974,-510.6471 258.8602,-511.471 251.1167,-504.2399 248.2974,-510.6471"/>
</g>
<!-- cli/utils.ts -->
<g id="node8" class="node">
<title>cli/utils.ts</title>
<path fill="none" stroke="#cfffac" d="M312.9214,-455.5187C312.9214,-455.5187 255.0151,-455.5187 255.0151,-455.5187 251.3485,-455.5187 247.6818,-451.852 247.6818,-448.1854 247.6818,-448.1854 247.6818,-440.852 247.6818,-440.852 247.6818,-437.1854 251.3485,-433.5187 255.0151,-433.5187 255.0151,-433.5187 312.9214,-433.5187 312.9214,-433.5187 316.588,-433.5187 320.2547,-437.1854 320.2547,-440.852 320.2547,-440.852 320.2547,-448.1854 320.2547,-448.1854 320.2547,-451.852 316.588,-455.5187 312.9214,-455.5187"/>
<text text-anchor="middle" x="283.9683" y="-440.3187" font-family="Arial" font-size="14.00" fill="#cfffac">cli/utils.ts</text>
</g>
<!-- cli/cli.ts&#45;&gt;cli/utils.ts -->
<g id="edge8" class="edge">
<title>cli/cli.ts&#45;&gt;cli/utils.ts</title>
<path fill="none" stroke="#757575" d="M180.6417,-459.1597C197.4733,-456.7748 218.6706,-453.7712 237.4787,-451.1061"/>
<polygon fill="#757575" stroke="#757575" points="238.2289,-454.5349 247.6389,-449.6665 237.2468,-447.6041 238.2289,-454.5349"/>
</g>
<!-- cli/reporter.ts&#45;&gt;cli/aggregator.ts -->
<g id="edge11" class="edge">
<title>cli/reporter.ts&#45;&gt;cli/aggregator.ts</title>
<path fill="none" stroke="#757575" d="M300.2436,-511.3916C324.9139,-494.525 371.9642,-462.3575 400.9528,-442.5385"/>
<polygon fill="#757575" stroke="#757575" points="403.0449,-445.3481 409.3246,-436.8149 399.0942,-439.5695 403.0449,-445.3481"/>
</g>
<!-- cli/table.ts -->
<g id="node12" class="node">
<title>cli/table.ts</title>
<path fill="none" stroke="#cfffac" d="M457.7623,-533.5187C457.7623,-533.5187 393.9321,-533.5187 393.9321,-533.5187 390.2654,-533.5187 386.5987,-529.852 386.5987,-526.1854 386.5987,-526.1854 386.5987,-518.852 386.5987,-518.852 386.5987,-515.1854 390.2654,-511.5187 393.9321,-511.5187 393.9321,-511.5187 457.7623,-511.5187 457.7623,-511.5187 461.4289,-511.5187 465.0956,-515.1854 465.0956,-518.852 465.0956,-518.852 465.0956,-526.1854 465.0956,-526.1854 465.0956,-529.852 461.4289,-533.5187 457.7623,-533.5187"/>
<text text-anchor="middle" x="425.8472" y="-518.3187" font-family="Arial" font-size="14.00" fill="#cfffac">cli/table.ts</text>
</g>
<!-- cli/reporter.ts&#45;&gt;cli/table.ts -->
<g id="edge12" class="edge">
<title>cli/reporter.ts&#45;&gt;cli/table.ts</title>
<path fill="none" stroke="#757575" d="M332.3981,-522.5187C346.6094,-522.5187 362.1653,-522.5187 376.437,-522.5187"/>
<polygon fill="#757575" stroke="#757575" points="376.5644,-526.0188 386.5644,-522.5187 376.5644,-519.0188 376.5644,-526.0188"/>
</g>
<!-- cli/error.ts -->
<g id="node10" class="node">
<title>cli/error.ts</title>
<path fill="none" stroke="#cfffac" d="M180.7288,-339.5187C180.7288,-339.5187 119.029,-339.5187 119.029,-339.5187 115.3623,-339.5187 111.6956,-335.852 111.6956,-332.1854 111.6956,-332.1854 111.6956,-324.852 111.6956,-324.852 111.6956,-321.1854 115.3623,-317.5187 119.029,-317.5187 119.029,-317.5187 180.7288,-317.5187 180.7288,-317.5187 184.3955,-317.5187 188.0622,-321.1854 188.0622,-324.852 188.0622,-324.852 188.0622,-332.1854 188.0622,-332.1854 188.0622,-335.852 184.3955,-339.5187 180.7288,-339.5187"/>
<text text-anchor="middle" x="149.8789" y="-324.3187" font-family="Arial" font-size="14.00" fill="#cfffac">cli/error.ts</text>
</g>
<!-- cli/live_trace.ts -->
<g id="node11" class="node">
<title>cli/live_trace.ts</title>
<path fill="none" stroke="#c6c5fe" d="M631.7064,-534.5187C631.7064,-534.5187 538.7594,-534.5187 538.7594,-534.5187 535.0928,-534.5187 531.4261,-530.852 531.4261,-527.1854 531.4261,-527.1854 531.4261,-519.852 531.4261,-519.852 531.4261,-516.1854 535.0928,-512.5187 538.7594,-512.5187 538.7594,-512.5187 631.7064,-512.5187 631.7064,-512.5187 635.3731,-512.5187 639.0397,-516.1854 639.0397,-519.852 639.0397,-519.852 639.0397,-527.1854 639.0397,-527.1854 639.0397,-530.852 635.3731,-534.5187 631.7064,-534.5187"/>
<text text-anchor="middle" x="585.2329" y="-519.3187" font-family="Arial" font-size="14.00" fill="#c6c5fe">cli/live_trace.ts</text>
</g>
<!-- cli/live_trace.ts&#45;&gt;cli/trace&#45;utils.ts -->
<g id="edge10" class="edge">
<title>cli/live_trace.ts&#45;&gt;cli/trace&#45;utils.ts</title>
<path fill="none" stroke="#757575" d="M639.1313,-513.2697C667.2249,-507.9275 701.781,-501.3565 731.2654,-495.7499"/>
<polygon fill="#757575" stroke="#757575" points="732.2938,-499.1171 741.4639,-493.8106 730.9861,-492.2403 732.2938,-499.1171"/>
</g>
<!-- cli/live_trace.ts&#45;&gt;cli/conditions.ts -->
<g id="edge9" class="edge">
<title>cli/live_trace.ts&#45;&gt;cli/conditions.ts</title>
<path fill="none" stroke="#757575" d="M639.2843,-522.1806C702.842,-520.1328 811.4164,-515.152 903.9766,-503.5187 918.4759,-501.6964 933.9877,-499.1142 948.5317,-496.4086"/>
<polygon fill="#757575" stroke="#757575" points="949.2538,-499.8341 958.4217,-494.5236 947.9432,-492.9579 949.2538,-499.8341"/>
</g>
<!-- index.ts -->
<g id="node13" class="node">
<title>index.ts</title>
<path fill="none" stroke="#c6c5fe" d="M57.0392,-474.5187C57.0392,-474.5187 7.2088,-474.5187 7.2088,-474.5187 3.5422,-474.5187 -.1245,-470.852 -.1245,-467.1854 -.1245,-467.1854 -.1245,-459.852 -.1245,-459.852 -.1245,-456.1854 3.5422,-452.5187 7.2088,-452.5187 7.2088,-452.5187 57.0392,-452.5187 57.0392,-452.5187 60.7059,-452.5187 64.3726,-456.1854 64.3726,-459.852 64.3726,-459.852 64.3726,-467.1854 64.3726,-467.1854 64.3726,-470.852 60.7059,-474.5187 57.0392,-474.5187"/>
<text text-anchor="middle" x="32.124" y="-459.3187" font-family="Arial" font-size="14.00" fill="#c6c5fe">index.ts</text>
</g>
<!-- index.ts&#45;&gt;cli/archive_trace.ts -->
<g id="edge14" class="edge">
<title>index.ts&#45;&gt;cli/archive_trace.ts</title>
<path fill="none" stroke="#757575" d="M46.236,-474.5677C59.5046,-484.4719 80.2627,-498.753 100.248,-507.5187 157.1149,-532.4609 173.9105,-534.6782 235.5098,-542.5187 344.7431,-556.4222 382.3976,-586.6828 483.2676,-542.5187 504.8763,-533.0578 499.2801,-516.0465 519.2676,-503.5187 522.1955,-501.6836 525.3021,-500.0079 528.51,-498.4792"/>
<polygon fill="#757575" stroke="#757575" points="529.9202,-501.6829 537.7537,-494.5494 527.1814,-495.2409 529.9202,-501.6829"/>
</g>
<!-- index.ts&#45;&gt;cli/cli.ts -->
<g id="edge15" class="edge">
<title>index.ts&#45;&gt;cli/cli.ts</title>
<path fill="none" stroke="#757575" d="M64.3011,-463.5187C78,-463.5187 94.1456,-463.5187 108.7003,-463.5187"/>
<polygon fill="#757575" stroke="#757575" points="108.9595,-467.0188 118.9594,-463.5187 108.9594,-460.0188 108.9595,-467.0188"/>
</g>
<!-- index.ts&#45;&gt;cli/reporter.ts -->
<g id="edge19" class="edge">
<title>index.ts&#45;&gt;cli/reporter.ts</title>
<path fill="none" stroke="#757575" d="M64.5576,-473.59C75.8078,-476.9368 88.536,-480.561 100.248,-483.5187 142.0046,-494.0638 189.5792,-504.1093 225.8527,-511.3637"/>
<polygon fill="#757575" stroke="#757575" points="225.2794,-514.8181 235.7698,-513.3338 226.6435,-507.9523 225.2794,-514.8181"/>
</g>
<!-- index.ts&#45;&gt;cli/conditions.ts -->
<g id="edge16" class="edge">
<title>index.ts&#45;&gt;cli/conditions.ts</title>
<path fill="none" stroke="#757575" d="M48.3969,-452.5063C87.2897,-427.2902 189.4488,-367.5187 283.9683,-367.5187 283.9683,-367.5187 283.9683,-367.5187 585.2329,-367.5187 736.1836,-367.5187 906.9898,-436.7013 976.9566,-468.2111"/>
<polygon fill="#757575" stroke="#757575" points="975.5961,-471.4373 986.1474,-472.3961 978.497,-465.0667 975.5961,-471.4373"/>
</g>
<!-- index.ts&#45;&gt;cli/error.ts -->
<g id="edge17" class="edge">
<title>index.ts&#45;&gt;cli/error.ts</title>
<path fill="none" stroke="#757575" d="M36.5208,-452.4667C45.5589,-430.9452 68.1099,-382.9498 100.248,-353.5187 103.8812,-350.1916 108.0396,-347.1971 112.3692,-344.5349"/>
<polygon fill="#757575" stroke="#757575" points="114.3346,-347.4472 121.3831,-339.537 110.9402,-341.3252 114.3346,-347.4472"/>
</g>
<!-- index.ts&#45;&gt;cli/live_trace.ts -->
<g id="edge18" class="edge">
<title>index.ts&#45;&gt;cli/live_trace.ts</title>
<path fill="none" stroke="#757575" d="M39.1964,-474.686C50.1666,-491.0191 72.8957,-521.146 100.248,-536.5187 153.7656,-566.597 174.5128,-557.5753 235.5098,-564.5187 344.9258,-576.9738 375.4215,-589.7948 483.2676,-567.5187 509.5108,-562.0981 537.3137,-549.5937 557.2472,-539.2953"/>
<polygon fill="#757575" stroke="#757575" points="558.8945,-542.3835 566.0883,-534.6053 555.6141,-536.1997 558.8945,-542.3835"/>
</g>
<!-- trace/index.ts -->
<g id="node14" class="node">
<title>trace/index.ts</title>
<path fill="none" stroke="#c6c5fe" d="M192.3076,-168.5187C192.3076,-168.5187 107.4502,-168.5187 107.4502,-168.5187 103.7835,-168.5187 100.1168,-164.852 100.1168,-161.1854 100.1168,-161.1854 100.1168,-153.852 100.1168,-153.852 100.1168,-150.1854 103.7835,-146.5187 107.4502,-146.5187 107.4502,-146.5187 192.3076,-146.5187 192.3076,-146.5187 195.9743,-146.5187 199.641,-150.1854 199.641,-153.852 199.641,-153.852 199.641,-161.1854 199.641,-161.1854 199.641,-164.852 195.9743,-168.5187 192.3076,-168.5187"/>
<text text-anchor="middle" x="149.8789" y="-153.3187" font-family="Arial" font-size="14.00" fill="#c6c5fe">trace/index.ts</text>
</g>
<!-- index.ts&#45;&gt;trace/index.ts -->
<g id="edge20" class="edge">
<title>index.ts&#45;&gt;trace/index.ts</title>
<path fill="none" stroke="#757575" d="M36.4546,-452.2651C53.9124,-406.8989 119.2714,-237.056 142.0166,-177.9499"/>
<polygon fill="#757575" stroke="#757575" points="145.3081,-179.1418 145.6331,-168.5519 138.7751,-176.6277 145.3081,-179.1418"/>
</g>
<!-- trace/index.ts&#45;&gt;trace/cpuprofile.ts -->
<g id="edge24" class="edge">
<title>trace/index.ts&#45;&gt;trace/cpuprofile.ts</title>
<path fill="none" stroke="#757575" d="M152.597,-168.8922C160.1075,-197.5239 184.0803,-272.5664 235.5098,-304.5187 322.281,-358.4283 445.6166,-351.9607 520.2625,-341.1158"/>
<polygon fill="#757575" stroke="#757575" points="521.1043,-344.528 530.4633,-339.5623 520.0503,-337.6078 521.1043,-344.528"/>
</g>
<!-- trace/bounds.ts -->
<g id="node15" class="node">
<title>trace/bounds.ts</title>
<path fill="none" stroke="#c6c5fe" d="M843.978,-110.5187C843.978,-110.5187 747.1968,-110.5187 747.1968,-110.5187 743.5301,-110.5187 739.8634,-106.852 739.8634,-103.1854 739.8634,-103.1854 739.8634,-95.852 739.8634,-95.852 739.8634,-92.1854 743.5301,-88.5187 747.1968,-88.5187 747.1968,-88.5187 843.978,-88.5187 843.978,-88.5187 847.6447,-88.5187 851.3114,-92.1854 851.3114,-95.852 851.3114,-95.852 851.3114,-103.1854 851.3114,-103.1854 851.3114,-106.852 847.6447,-110.5187 843.978,-110.5187"/>
<text text-anchor="middle" x="795.5874" y="-95.3187" font-family="Arial" font-size="14.00" fill="#c6c5fe">trace/bounds.ts</text>
</g>
<!-- trace/index.ts&#45;&gt;trace/bounds.ts -->
<g id="edge23" class="edge">
<title>trace/index.ts&#45;&gt;trace/bounds.ts</title>
<path fill="none" stroke="#757575" d="M153.0001,-146.4784C161.3006,-119.3722 186.6908,-49.5023 235.5098,-18.5187 285.7034,13.3373 309.0714,-6.8573 368.4268,-3.5187 494.9174,3.5961 530.2603,-1.7759 651.1982,-39.5187 690.7765,-51.8704 734.5243,-70.8409 763.3785,-84.1356"/>
<polygon fill="#757575" stroke="#757575" points="762.022,-87.3648 772.5653,-88.409 764.9744,-81.0178 762.022,-87.3648"/>
</g>
<!-- trace/index.ts&#45;&gt;trace/trace_event.ts -->
<g id="edge28" class="edge">
<title>trace/index.ts&#45;&gt;trace/trace_event.ts</title>
<path fill="none" stroke="#757575" d="M187.0436,-168.5767C230.255,-181.0344 303.9054,-201.037 368.4268,-212.5187 602.9834,-254.2587 673.4393,-295.6151 903.9766,-235.5187 934.9273,-227.4505 966.4179,-208.0703 986.8305,-193.711"/>
<polygon fill="#757575" stroke="#757575" points="989.0696,-196.4114 995.1272,-187.7191 984.9712,-190.7366 989.0696,-196.4114"/>
</g>
<!-- trace/process.ts -->
<g id="node17" class="node">
<title>trace/process.ts</title>
<path fill="none" stroke="#c6c5fe" d="M475.8275,-34.5187C475.8275,-34.5187 375.8669,-34.5187 375.8669,-34.5187 372.2002,-34.5187 368.5335,-30.852 368.5335,-27.1854 368.5335,-27.1854 368.5335,-19.852 368.5335,-19.852 368.5335,-16.1854 372.2002,-12.5187 375.8669,-12.5187 375.8669,-12.5187 475.8275,-12.5187 475.8275,-12.5187 479.4941,-12.5187 483.1608,-16.1854 483.1608,-19.852 483.1608,-19.852 483.1608,-27.1854 483.1608,-27.1854 483.1608,-30.852 479.4941,-34.5187 475.8275,-34.5187"/>
<text text-anchor="middle" x="425.8472" y="-19.3187" font-family="Arial" font-size="14.00" fill="#c6c5fe">trace/process.ts</text>
</g>
<!-- trace/index.ts&#45;&gt;trace/process.ts -->
<g id="edge25" class="edge">
<title>trace/index.ts&#45;&gt;trace/process.ts</title>
<path fill="none" stroke="#757575" d="M155.0314,-146.2097C166.1027,-123.355 194.5246,-71.8628 235.5098,-48.5187 272.4625,-27.4714 319.8643,-21.1945 358.1188,-20.1928"/>
<polygon fill="#757575" stroke="#757575" points="358.1943,-23.6921 368.1411,-20.0438 358.0902,-16.6929 358.1943,-23.6921"/>
</g>
<!-- trace/thread.ts -->
<g id="node18" class="node">
<title>trace/thread.ts</title>
<path fill="none" stroke="#c6c5fe" d="M630.89,-110.5187C630.89,-110.5187 539.5758,-110.5187 539.5758,-110.5187 535.9092,-110.5187 532.2425,-106.852 532.2425,-103.1854 532.2425,-103.1854 532.2425,-95.852 532.2425,-95.852 532.2425,-92.1854 535.9092,-88.5187 539.5758,-88.5187 539.5758,-88.5187 630.89,-88.5187 630.89,-88.5187 634.5566,-88.5187 638.2233,-92.1854 638.2233,-95.852 638.2233,-95.852 638.2233,-103.1854 638.2233,-103.1854 638.2233,-106.852 634.5566,-110.5187 630.89,-110.5187"/>
<text text-anchor="middle" x="585.2329" y="-95.3187" font-family="Arial" font-size="14.00" fill="#c6c5fe">trace/thread.ts</text>
</g>
<!-- trace/index.ts&#45;&gt;trace/thread.ts -->
<g id="edge26" class="edge">
<title>trace/index.ts&#45;&gt;trace/thread.ts</title>
<path fill="none" stroke="#757575" d="M182.7138,-146.4468C225.0525,-132.7902 301.2379,-110.305 368.4268,-101.5187 419.9117,-94.786 478.8609,-94.7282 522.2821,-96.1068"/>
<polygon fill="#757575" stroke="#757575" points="522.297,-99.6094 532.4139,-96.4634 522.5432,-92.6138 522.297,-99.6094"/>
</g>
<!-- trace/trace.ts -->
<g id="node19" class="node">
<title>trace/trace.ts</title>
<path fill="none" stroke="#c6c5fe" d="M325.052,-168.5187C325.052,-168.5187 242.8846,-168.5187 242.8846,-168.5187 239.2179,-168.5187 235.5512,-164.852 235.5512,-161.1854 235.5512,-161.1854 235.5512,-153.852 235.5512,-153.852 235.5512,-150.1854 239.2179,-146.5187 242.8846,-146.5187 242.8846,-146.5187 325.052,-146.5187 325.052,-146.5187 328.7186,-146.5187 332.3853,-150.1854 332.3853,-153.852 332.3853,-153.852 332.3853,-161.1854 332.3853,-161.1854 332.3853,-164.852 328.7186,-168.5187 325.052,-168.5187"/>
<text text-anchor="middle" x="283.9683" y="-153.3187" font-family="Arial" font-size="14.00" fill="#c6c5fe">trace/trace.ts</text>
</g>
<!-- trace/index.ts&#45;&gt;trace/trace.ts -->
<g id="edge27" class="edge">
<title>trace/index.ts&#45;&gt;trace/trace.ts</title>
<path fill="none" stroke="#757575" d="M199.8088,-157.5187C208.0669,-157.5187 216.6962,-157.5187 225.1485,-157.5187"/>
<polygon fill="#757575" stroke="#757575" points="225.3338,-161.0188 235.3338,-157.5187 225.3337,-154.0188 225.3338,-161.0188"/>
</g>
<!-- trace/bounds.ts&#45;&gt;trace/trace_event.ts -->
<g id="edge21" class="edge">
<title>trace/bounds.ts&#45;&gt;trace/trace_event.ts</title>
<path fill="none" stroke="#757575" d="M851.4376,-109.8096C868.5356,-113.6479 887.241,-118.5542 903.9766,-124.5187 931.1603,-134.2069 960.4816,-149.0498 981.2924,-160.4014"/>
<polygon fill="#757575" stroke="#757575" points="979.7726,-163.5605 990.2169,-165.3402 983.162,-157.4358 979.7726,-163.5605"/>
</g>
<!-- trace/process.ts&#45;&gt;trace/bounds.ts -->
<g id="edge29" class="edge">
<title>trace/process.ts&#45;&gt;trace/bounds.ts</title>
<path fill="none" stroke="#757575" d="M479.6106,-34.5698C546.5203,-48.323 660.6367,-71.7796 731.8712,-86.4219"/>
<polygon fill="#757575" stroke="#757575" points="731.5594,-89.9309 742.0594,-88.516 732.9689,-83.0742 731.5594,-89.9309"/>
</g>
<!-- trace/process.ts&#45;&gt;trace/trace_event.ts -->
<g id="edge31" class="edge">
<title>trace/process.ts&#45;&gt;trace/trace_event.ts</title>
<path fill="none" stroke="#757575" d="M483.2784,-18.5473C576.5587,-12.9523 764.5822,-12.1403 903.9766,-79.5187 942.1102,-97.9512 976.1725,-134.7679 994.7131,-157.3641"/>
<polygon fill="#757575" stroke="#757575" points="992.0528,-159.6414 1001.0351,-165.2601 997.5171,-155.2663 992.0528,-159.6414"/>
</g>
<!-- trace/process.ts&#45;&gt;trace/thread.ts -->
<g id="edge30" class="edge">
<title>trace/process.ts&#45;&gt;trace/thread.ts</title>
<path fill="none" stroke="#757575" d="M454.4727,-34.5514C463.8576,-38.5422 474.1994,-43.35 483.2676,-48.5187 500.4143,-58.2921 501.8895,-65.1628 519.2676,-74.5187 526.2433,-78.2742 533.9055,-81.7281 541.462,-84.7929"/>
<polygon fill="#757575" stroke="#757575" points="540.3284,-88.1072 550.9173,-88.4604 542.8598,-81.5809 540.3284,-88.1072"/>
</g>
<!-- trace/thread.ts&#45;&gt;trace/bounds.ts -->
<g id="edge32" class="edge">
<title>trace/thread.ts&#45;&gt;trace/bounds.ts</title>
<path fill="none" stroke="#757575" d="M638.0427,-99.5187C665.8034,-99.5187 700.0989,-99.5187 729.5962,-99.5187"/>
<polygon fill="#757575" stroke="#757575" points="729.8111,-103.0188 739.8111,-99.5187 729.811,-96.0188 729.8111,-103.0188"/>
</g>
<!-- trace/thread.ts&#45;&gt;trace/trace_event.ts -->
<g id="edge33" class="edge">
<title>trace/thread.ts&#45;&gt;trace/trace_event.ts</title>
<path fill="none" stroke="#757575" d="M638.119,-110.0863C653.897,-113.1866 671.2378,-116.5422 687.1982,-119.5187 772.0239,-135.3383 869.6223,-152.4493 934.983,-163.7515"/>
<polygon fill="#757575" stroke="#757575" points="934.7395,-167.2612 945.1893,-165.5145 935.931,-160.3633 934.7395,-167.2612"/>
</g>
<!-- trace/trace.ts&#45;&gt;trace/cpuprofile.ts -->
<g id="edge35" class="edge">
<title>trace/trace.ts&#45;&gt;trace/cpuprofile.ts</title>
<path fill="none" stroke="#757575" d="M295.2181,-168.6926C310.7171,-183.6675 339.9631,-210.4505 368.4268,-228.5187 426.6236,-265.461 500.6992,-296.6059 545.4658,-313.8965"/>
<polygon fill="#757575" stroke="#757575" points="544.2383,-317.1742 554.8289,-317.4756 546.7378,-310.6356 544.2383,-317.1742"/>
</g>
<!-- trace/trace.ts&#45;&gt;trace/bounds.ts -->
<g id="edge34" class="edge">
<title>trace/trace.ts&#45;&gt;trace/bounds.ts</title>
<path fill="none" stroke="#757575" d="M332.4435,-153.0403C402.7637,-146.4217 537.1382,-133.3153 651.1982,-119.5187 676.9231,-116.407 705.1685,-112.585 729.8027,-109.1186"/>
<polygon fill="#757575" stroke="#757575" points="730.3524,-112.5758 739.7632,-107.7089 729.3714,-105.6449 730.3524,-112.5758"/>
</g>
<!-- trace/trace.ts&#45;&gt;trace/trace_event.ts -->
<g id="edge38" class="edge">
<title>trace/trace.ts&#45;&gt;trace/trace_event.ts</title>
<path fill="none" stroke="#757575" d="M332.4131,-158.7875C455.0818,-162.0001 778.9071,-170.4809 929.8728,-174.4346"/>
<polygon fill="#757575" stroke="#757575" points="929.9124,-177.9367 940.0007,-174.6998 930.0957,-170.9391 929.9124,-177.9367"/>
</g>
<!-- trace/trace.ts&#45;&gt;trace/process.ts -->
<g id="edge36" class="edge">
<title>trace/trace.ts&#45;&gt;trace/process.ts</title>
<path fill="none" stroke="#757575" d="M296.0648,-146.0939C320.6886,-122.8375 376.815,-69.828 406.5433,-41.7506"/>
<polygon fill="#757575" stroke="#757575" points="409.3133,-43.9487 414.1801,-34.5379 404.5068,-38.8597 409.3133,-43.9487"/>
</g>
<!-- trace/trace.ts&#45;&gt;trace/thread.ts -->
<g id="edge37" class="edge">
<title>trace/trace.ts&#45;&gt;trace/thread.ts</title>
<path fill="none" stroke="#757575" d="M307.4603,-146.4483C324.1163,-139.0728 347.191,-129.7975 368.4268,-124.5187 419.3185,-111.8679 478.5528,-105.5889 522.2338,-102.4897"/>
<polygon fill="#757575" stroke="#757575" points="522.6846,-105.9674 532.4271,-101.804 522.2147,-98.9831 522.6846,-105.9674"/>
</g>
<!-- trace/trace_event_comparator.ts -->
<g id="node20" class="node">
<title>trace/trace_event_comparator.ts</title>
<path fill="none" stroke="#c6c5fe" d="M896.5325,-226.5187C896.5325,-226.5187 694.6423,-226.5187 694.6423,-226.5187 690.9756,-226.5187 687.309,-222.852 687.309,-219.1854 687.309,-219.1854 687.309,-211.852 687.309,-211.852 687.309,-208.1854 690.9756,-204.5187 694.6423,-204.5187 694.6423,-204.5187 896.5325,-204.5187 896.5325,-204.5187 900.1992,-204.5187 903.8658,-208.1854 903.8658,-211.852 903.8658,-211.852 903.8658,-219.1854 903.8658,-219.1854 903.8658,-222.852 900.1992,-226.5187 896.5325,-226.5187"/>
<text text-anchor="middle" x="795.5874" y="-211.3187" font-family="Arial" font-size="14.00" fill="#c6c5fe">trace/trace_event_comparator.ts</text>
</g>
<!-- trace/trace.ts&#45;&gt;trace/trace_event_comparator.ts -->
<g id="edge39" class="edge">
<title>trace/trace.ts&#45;&gt;trace/trace_event_comparator.ts</title>
<path fill="none" stroke="#757575" d="M306.6592,-168.6406C323.3241,-176.244 346.7432,-185.7728 368.4268,-190.5187 471.0402,-212.9777 590.619,-218.2535 677.1152,-218.4764"/>
<polygon fill="#757575" stroke="#757575" points="677.2295,-221.9763 687.2307,-218.4798 677.232,-214.9763 677.2295,-221.9763"/>
</g>
<!-- trace/trace_event_comparator.ts&#45;&gt;trace/trace_event.ts -->
<g id="edge40" class="edge">
<title>trace/trace_event_comparator.ts&#45;&gt;trace/trace_event.ts</title>
<path fill="none" stroke="#757575" d="M856.0149,-204.4993C881.7539,-199.8055 911.9573,-194.2977 938.7278,-189.4159"/>
<polygon fill="#757575" stroke="#757575" points="939.5935,-192.8158 948.8033,-187.5785 938.3376,-185.9294 939.5935,-192.8158"/>
</g>
</g>
</svg>
