<?xml version="1.0" encoding="UTF-8" standalone="no"?>
<!DOCTYPE svg PUBLIC "-//W3C//DTD SVG 1.1//EN"
 "http://www.w3.org/Graphics/SVG/1.1/DTD/svg11.dtd">
<!-- Generated by graphviz version 2.40.1 (20161225.0304)
 -->
<!-- Title: G Pages: 1 -->
<svg width="1728pt" height="540pt"
 viewBox="0.00 0.00 1727.85 540.24" xmlns="http://www.w3.org/2000/svg" xmlns:xlink="http://www.w3.org/1999/xlink">
<g id="graph0" class="graph" transform="scale(1 1) rotate(0) translate(21.6 518.6432)">
<title>G</title>
<polygon fill="#111111" stroke="transparent" points="-21.6,21.6 -21.6,-518.6432 1706.2504,-518.6432 1706.2504,21.6 -21.6,21.6"/>
<!-- benchmark.ts -->
<g id="node1" class="node">
<title>benchmark.ts</title>
<path fill="none" stroke="#c6c5fe" d="M682.8888,-414C682.8888,-414 597.4871,-414 597.4871,-414 593.8205,-414 590.1538,-410.3333 590.1538,-406.6667 590.1538,-406.6667 590.1538,-399.3333 590.1538,-399.3333 590.1538,-395.6667 593.8205,-392 597.4871,-392 597.4871,-392 682.8888,-392 682.8888,-392 686.5555,-392 690.2222,-395.6667 690.2222,-399.3333 690.2222,-399.3333 690.2222,-406.6667 690.2222,-406.6667 690.2222,-410.3333 686.5555,-414 682.8888,-414"/>
<text text-anchor="middle" x="640.188" y="-398.8" font-family="Arial" font-size="14.00" fill="#c6c5fe">benchmark.ts</text>
</g>
<!-- runner.ts -->
<g id="node2" class="node">
<title>runner.ts</title>
<path fill="none" stroke="#cfffac" d="M803.9867,-472C803.9867,-472 747.6852,-472 747.6852,-472 744.0185,-472 740.3519,-468.3333 740.3519,-464.6667 740.3519,-464.6667 740.3519,-457.3333 740.3519,-457.3333 740.3519,-453.6667 744.0185,-450 747.6852,-450 747.6852,-450 803.9867,-450 803.9867,-450 807.6534,-450 811.32,-453.6667 811.32,-457.3333 811.32,-457.3333 811.32,-464.6667 811.32,-464.6667 811.32,-468.3333 807.6534,-472 803.9867,-472"/>
<text text-anchor="middle" x="775.8359" y="-456.8" font-family="Arial" font-size="14.00" fill="#cfffac">runner.ts</text>
</g>
<!-- benchmark.ts&#45;&gt;runner.ts -->
<g id="edge1" class="edge">
<title>benchmark.ts&#45;&gt;runner.ts</title>
<path fill="none" stroke="#757575" d="M666.0216,-414.0459C687.2357,-423.1165 717.4856,-436.0507 740.867,-446.0481"/>
<polygon fill="#757575" stroke="#757575" points="739.5277,-449.2819 750.0985,-449.9952 742.2798,-442.8455 739.5277,-449.2819"/>
</g>
<!-- tab.ts -->
<g id="node3" class="node">
<title>tab.ts</title>
<path fill="none" stroke="#c6c5fe" d="M795.5026,-395C795.5026,-395 756.1693,-395 756.1693,-395 752.5026,-395 748.8359,-391.3333 748.8359,-387.6667 748.8359,-387.6667 748.8359,-380.3333 748.8359,-380.3333 748.8359,-376.6667 752.5026,-373 756.1693,-373 756.1693,-373 795.5026,-373 795.5026,-373 799.1693,-373 802.8359,-376.6667 802.8359,-380.3333 802.8359,-380.3333 802.8359,-387.6667 802.8359,-387.6667 802.8359,-391.3333 799.1693,-395 795.5026,-395"/>
<text text-anchor="middle" x="775.8359" y="-379.8" font-family="Arial" font-size="14.00" fill="#c6c5fe">tab.ts</text>
</g>
<!-- benchmark.ts&#45;&gt;tab.ts -->
<g id="edge2" class="edge">
<title>benchmark.ts&#45;&gt;tab.ts</title>
<path fill="none" stroke="#757575" d="M690.3129,-395.9791C706.2242,-393.7504 723.5329,-391.326 738.3903,-389.245"/>
<polygon fill="#757575" stroke="#757575" points="739.3027,-392.6514 748.7205,-387.798 738.3316,-385.7191 739.3027,-392.6514"/>
</g>
<!-- trace/trace.ts -->
<g id="node5" class="node">
<title>trace/trace.ts</title>
<path fill="none" stroke="#c6c5fe" d="M951.009,-241C951.009,-241 868.8416,-241 868.8416,-241 865.1749,-241 861.5083,-237.3333 861.5083,-233.6667 861.5083,-233.6667 861.5083,-226.3333 861.5083,-226.3333 861.5083,-222.6667 865.1749,-219 868.8416,-219 868.8416,-219 951.009,-219 951.009,-219 954.6757,-219 958.3423,-222.6667 958.3423,-226.3333 958.3423,-226.3333 958.3423,-233.6667 958.3423,-233.6667 958.3423,-237.3333 954.6757,-241 951.009,-241"/>
<text text-anchor="middle" x="909.9253" y="-225.8" font-family="Arial" font-size="14.00" fill="#c6c5fe">trace/trace.ts</text>
</g>
<!-- tab.ts&#45;&gt;trace/trace.ts -->
<g id="edge17" class="edge">
<title>tab.ts&#45;&gt;trace/trace.ts</title>
<path fill="none" stroke="#757575" d="M785.4793,-372.9247C808.0801,-346.968 864.6992,-281.9416 893.1109,-249.3111"/>
<polygon fill="#757575" stroke="#757575" points="896.0804,-251.2306 900.0075,-241.3904 890.8012,-246.6339 896.0804,-251.2306"/>
</g>
<!-- benchmarks/initial&#45;render&#45;metric.ts -->
<g id="node4" class="node">
<title>benchmarks/initial&#45;render&#45;metric.ts</title>
<path fill="none" stroke="#c6c5fe" d="M546.703,-318C546.703,-318 330.9084,-318 330.9084,-318 327.2417,-318 323.575,-314.3333 323.575,-310.6667 323.575,-310.6667 323.575,-303.3333 323.575,-303.3333 323.575,-299.6667 327.2417,-296 330.9084,-296 330.9084,-296 546.703,-296 546.703,-296 550.3696,-296 554.0363,-299.6667 554.0363,-303.3333 554.0363,-303.3333 554.0363,-310.6667 554.0363,-310.6667 554.0363,-314.3333 550.3696,-318 546.703,-318"/>
<text text-anchor="middle" x="438.8057" y="-302.8" font-family="Arial" font-size="14.00" fill="#c6c5fe">benchmarks/initial&#45;render&#45;metric.ts</text>
</g>
<!-- benchmarks/initial&#45;render&#45;metric.ts&#45;&gt;benchmark.ts -->
<g id="edge3" class="edge">
<title>benchmarks/initial&#45;render&#45;metric.ts&#45;&gt;benchmark.ts</title>
<path fill="none" stroke="#757575" d="M461.9068,-318.0124C497.774,-335.1105 566.9689,-368.0961 607.8044,-387.5626"/>
<polygon fill="#757575" stroke="#757575" points="606.514,-390.8248 617.047,-391.9686 609.5263,-384.506 606.514,-390.8248"/>
</g>
<!-- benchmarks/initial&#45;render&#45;metric.ts&#45;&gt;trace/trace.ts -->
<g id="edge4" class="edge">
<title>benchmarks/initial&#45;render&#45;metric.ts&#45;&gt;trace/trace.ts</title>
<path fill="none" stroke="#757575" d="M515.0716,-295.9913C564.9532,-288.6631 631.5113,-278.6433 690.2051,-269 744.8241,-260.0262 806.9135,-248.9216 851.1231,-240.8597"/>
<polygon fill="#757575" stroke="#757575" points="851.9088,-244.2741 861.1168,-239.0336 850.6505,-237.3882 851.9088,-244.2741"/>
</g>
<!-- trace/trace_event.ts -->
<g id="node6" class="node">
<title>trace/trace_event.ts</title>
<path fill="none" stroke="#cfffac" d="M1677.2927,-183C1677.2927,-183 1553.057,-183 1553.057,-183 1549.3903,-183 1545.7236,-179.3333 1545.7236,-175.6667 1545.7236,-175.6667 1545.7236,-168.3333 1545.7236,-168.3333 1545.7236,-164.6667 1549.3903,-161 1553.057,-161 1553.057,-161 1677.2927,-161 1677.2927,-161 1680.9593,-161 1684.626,-164.6667 1684.626,-168.3333 1684.626,-168.3333 1684.626,-175.6667 1684.626,-175.6667 1684.626,-179.3333 1680.9593,-183 1677.2927,-183"/>
<text text-anchor="middle" x="1615.1748" y="-167.8" font-family="Arial" font-size="14.00" fill="#cfffac">trace/trace_event.ts</text>
</g>
<!-- benchmarks/initial&#45;render&#45;metric.ts&#45;&gt;trace/trace_event.ts -->
<g id="edge5" class="edge">
<title>benchmarks/initial&#45;render&#45;metric.ts&#45;&gt;trace/trace_event.ts</title>
<path fill="none" stroke="#757575" d="M554.144,-316.7226C619.1946,-321.3973 701.9935,-326 775.8359,-326 775.8359,-326 775.8359,-326 1253.5864,-326 1368.6604,-326 1408.1705,-342.1659 1509.6992,-288 1552.2346,-265.3072 1586.4012,-218.4887 1603.4185,-191.7904"/>
<polygon fill="#757575" stroke="#757575" points="1606.4135,-193.6018 1608.7081,-183.2585 1600.4641,-189.9133 1606.4135,-193.6018"/>
</g>
<!-- util.ts -->
<g id="node7" class="node">
<title>util.ts</title>
<path fill="none" stroke="#cfffac" d="M659.8547,-260C659.8547,-260 620.5213,-260 620.5213,-260 616.8547,-260 613.188,-256.3333 613.188,-252.6667 613.188,-252.6667 613.188,-245.3333 613.188,-245.3333 613.188,-241.6667 616.8547,-238 620.5213,-238 620.5213,-238 659.8547,-238 659.8547,-238 663.5213,-238 667.188,-241.6667 667.188,-245.3333 667.188,-245.3333 667.188,-252.6667 667.188,-252.6667 667.188,-256.3333 663.5213,-260 659.8547,-260"/>
<text text-anchor="middle" x="640.188" y="-244.8" font-family="Arial" font-size="14.00" fill="#cfffac">util.ts</text>
</g>
<!-- benchmarks/initial&#45;render&#45;metric.ts&#45;&gt;util.ts -->
<g id="edge6" class="edge">
<title>benchmarks/initial&#45;render&#45;metric.ts&#45;&gt;util.ts</title>
<path fill="none" stroke="#757575" d="M498.2334,-295.9373C516.3395,-292.0818 536.2016,-287.3597 554.1709,-282 571.1449,-276.9372 589.53,-270.0793 604.9289,-263.9267"/>
<polygon fill="#757575" stroke="#757575" points="606.6234,-267.0163 614.5721,-260.0114 603.99,-260.5305 606.6234,-267.0163"/>
</g>
<!-- trace/trace.ts&#45;&gt;trace/trace_event.ts -->
<g id="edge32" class="edge">
<title>trace/trace.ts&#45;&gt;trace/trace_event.ts</title>
<path fill="none" stroke="#757575" d="M958.6883,-233.4564C999.0541,-235.7812 1057.8901,-237.9335 1109.1973,-235 1262.7809,-226.2189 1441.0116,-200.3281 1539.6529,-184.6035"/>
<polygon fill="#757575" stroke="#757575" points="1540.21,-188.059 1549.5301,-183.0205 1539.1022,-181.1472 1540.21,-188.059"/>
</g>
<!-- trace/bounds.ts -->
<g id="node11" class="node">
<title>trace/bounds.ts</title>
<path fill="none" stroke="#c6c5fe" d="M1502.228,-144C1502.228,-144 1405.4468,-144 1405.4468,-144 1401.7801,-144 1398.1134,-140.3333 1398.1134,-136.6667 1398.1134,-136.6667 1398.1134,-129.3333 1398.1134,-129.3333 1398.1134,-125.6667 1401.7801,-122 1405.4468,-122 1405.4468,-122 1502.228,-122 1502.228,-122 1505.8947,-122 1509.5614,-125.6667 1509.5614,-129.3333 1509.5614,-129.3333 1509.5614,-136.6667 1509.5614,-136.6667 1509.5614,-140.3333 1505.8947,-144 1502.228,-144"/>
<text text-anchor="middle" x="1453.8374" y="-128.8" font-family="Arial" font-size="14.00" fill="#c6c5fe">trace/bounds.ts</text>
</g>
<!-- trace/trace.ts&#45;&gt;trace/bounds.ts -->
<g id="edge29" class="edge">
<title>trace/trace.ts&#45;&gt;trace/bounds.ts</title>
<path fill="none" stroke="#757575" d="M958.647,-228.3935C1042.4693,-224.6323 1218.7646,-212.3349 1361.9756,-173 1383.3459,-167.1303 1406.198,-157.1957 1423.7637,-148.696"/>
<polygon fill="#757575" stroke="#757575" points="1425.5258,-151.7291 1432.9356,-144.1565 1422.4207,-145.4555 1425.5258,-151.7291"/>
</g>
<!-- trace/process.ts -->
<g id="node12" class="node">
<title>trace/process.ts</title>
<path fill="none" stroke="#c6c5fe" d="M1101.7708,-107C1101.7708,-107 1001.8102,-107 1001.8102,-107 998.1436,-107 994.4769,-103.3333 994.4769,-99.6667 994.4769,-99.6667 994.4769,-92.3333 994.4769,-92.3333 994.4769,-88.6667 998.1436,-85 1001.8102,-85 1001.8102,-85 1101.7708,-85 1101.7708,-85 1105.4375,-85 1109.1042,-88.6667 1109.1042,-92.3333 1109.1042,-92.3333 1109.1042,-99.6667 1109.1042,-99.6667 1109.1042,-103.3333 1105.4375,-107 1101.7708,-107"/>
<text text-anchor="middle" x="1051.7905" y="-91.8" font-family="Arial" font-size="14.00" fill="#c6c5fe">trace/process.ts</text>
</g>
<!-- trace/trace.ts&#45;&gt;trace/process.ts -->
<g id="edge30" class="edge">
<title>trace/trace.ts&#45;&gt;trace/process.ts</title>
<path fill="none" stroke="#757575" d="M922.0206,-218.5752C946.6421,-195.3188 1002.7631,-142.3093 1032.4885,-114.2319"/>
<polygon fill="#757575" stroke="#757575" points="1035.2582,-116.4303 1040.1246,-107.0192 1030.4515,-111.3415 1035.2582,-116.4303"/>
</g>
<!-- trace/thread.ts -->
<g id="node13" class="node">
<title>trace/thread.ts</title>
<path fill="none" stroke="#c6c5fe" d="M1299.2435,-164C1299.2435,-164 1207.9294,-164 1207.9294,-164 1204.2627,-164 1200.596,-160.3333 1200.596,-156.6667 1200.596,-156.6667 1200.596,-149.3333 1200.596,-149.3333 1200.596,-145.6667 1204.2627,-142 1207.9294,-142 1207.9294,-142 1299.2435,-142 1299.2435,-142 1302.9102,-142 1306.5768,-145.6667 1306.5768,-149.3333 1306.5768,-149.3333 1306.5768,-156.6667 1306.5768,-156.6667 1306.5768,-160.3333 1302.9102,-164 1299.2435,-164"/>
<text text-anchor="middle" x="1253.5864" y="-148.8" font-family="Arial" font-size="14.00" fill="#c6c5fe">trace/thread.ts</text>
</g>
<!-- trace/trace.ts&#45;&gt;trace/thread.ts -->
<g id="edge31" class="edge">
<title>trace/trace.ts&#45;&gt;trace/thread.ts</title>
<path fill="none" stroke="#757575" d="M934.235,-218.9707C950.8729,-211.8052 973.5998,-202.7592 994.3838,-197 1060.2947,-178.7362 1137.8509,-166.7783 1190.8386,-160.0015"/>
<polygon fill="#757575" stroke="#757575" points="1191.2814,-163.4735 1200.7678,-158.7555 1190.4098,-156.528 1191.2814,-163.4735"/>
</g>
<!-- trace/trace_event_comparator.ts -->
<g id="node14" class="node">
<title>trace/trace_event_comparator.ts</title>
<path fill="none" stroke="#c6c5fe" d="M1354.5315,-298C1354.5315,-298 1152.6413,-298 1152.6413,-298 1148.9747,-298 1145.308,-294.3333 1145.308,-290.6667 1145.308,-290.6667 1145.308,-283.3333 1145.308,-283.3333 1145.308,-279.6667 1148.9747,-276 1152.6413,-276 1152.6413,-276 1354.5315,-276 1354.5315,-276 1358.1982,-276 1361.8649,-279.6667 1361.8649,-283.3333 1361.8649,-283.3333 1361.8649,-290.6667 1361.8649,-290.6667 1361.8649,-294.3333 1358.1982,-298 1354.5315,-298"/>
<text text-anchor="middle" x="1253.5864" y="-282.8" font-family="Arial" font-size="14.00" fill="#c6c5fe">trace/trace_event_comparator.ts</text>
</g>
<!-- trace/trace.ts&#45;&gt;trace/trace_event_comparator.ts -->
<g id="edge33" class="edge">
<title>trace/trace.ts&#45;&gt;trace/trace_event_comparator.ts</title>
<path fill="none" stroke="#757575" d="M933.0229,-241.0598C949.6883,-248.5304 972.9369,-257.9239 994.3838,-263 1039.767,-273.7414 1090.6807,-279.7229 1135.2917,-283.0364"/>
<polygon fill="#757575" stroke="#757575" points="1135.0785,-286.53 1145.3003,-283.7434 1135.5718,-279.5474 1135.0785,-286.53"/>
</g>
<!-- benchmarks/initial&#45;render.ts -->
<g id="node8" class="node">
<title>benchmarks/initial&#45;render.ts</title>
<path fill="none" stroke="#c6c5fe" d="M280.2034,-357C280.2034,-357 107.4851,-357 107.4851,-357 103.8184,-357 100.1518,-353.3333 100.1518,-349.6667 100.1518,-349.6667 100.1518,-342.3333 100.1518,-342.3333 100.1518,-338.6667 103.8184,-335 107.4851,-335 107.4851,-335 280.2034,-335 280.2034,-335 283.8701,-335 287.5367,-338.6667 287.5367,-342.3333 287.5367,-342.3333 287.5367,-349.6667 287.5367,-349.6667 287.5367,-353.3333 283.8701,-357 280.2034,-357"/>
<text text-anchor="middle" x="193.8442" y="-341.8" font-family="Arial" font-size="14.00" fill="#c6c5fe">benchmarks/initial&#45;render.ts</text>
</g>
<!-- benchmarks/initial&#45;render.ts&#45;&gt;benchmark.ts -->
<g id="edge7" class="edge">
<title>benchmarks/initial&#45;render.ts&#45;&gt;benchmark.ts</title>
<path fill="none" stroke="#757575" d="M280.1683,-357.0239C368.3282,-368.2823 502.8931,-385.4669 580.1029,-395.3269"/>
<polygon fill="#757575" stroke="#757575" points="579.7835,-398.8144 590.1464,-396.6095 580.6703,-391.8708 579.7835,-398.8144"/>
</g>
<!-- benchmarks/initial&#45;render.ts&#45;&gt;tab.ts -->
<g id="edge9" class="edge">
<title>benchmarks/initial&#45;render.ts&#45;&gt;tab.ts</title>
<path fill="none" stroke="#757575" d="M287.6427,-347.8717C360.4215,-349.7527 463.7954,-353.3597 554.1709,-360 619.2162,-364.7792 694.6628,-373.6639 738.6419,-379.1795"/>
<polygon fill="#757575" stroke="#757575" points="738.2308,-382.6554 748.5909,-380.4373 739.1088,-375.7106 738.2308,-382.6554"/>
</g>
<!-- benchmarks/initial&#45;render.ts&#45;&gt;benchmarks/initial&#45;render&#45;metric.ts -->
<g id="edge8" class="edge">
<title>benchmarks/initial&#45;render.ts&#45;&gt;benchmarks/initial&#45;render&#45;metric.ts</title>
<path fill="none" stroke="#757575" d="M263.0581,-334.9805C293.0591,-330.2041 328.3555,-324.5846 359.415,-319.6397"/>
<polygon fill="#757575" stroke="#757575" points="360.013,-323.0887 369.3383,-318.0598 358.9123,-316.1757 360.013,-323.0887"/>
</g>
<!-- index.ts -->
<g id="node9" class="node">
<title>index.ts</title>
<path fill="none" stroke="#c6c5fe" d="M57.0392,-357C57.0392,-357 7.2088,-357 7.2088,-357 3.5422,-357 -.1245,-353.3333 -.1245,-349.6667 -.1245,-349.6667 -.1245,-342.3333 -.1245,-342.3333 -.1245,-338.6667 3.5422,-335 7.2088,-335 7.2088,-335 57.0392,-335 57.0392,-335 60.7059,-335 64.3726,-338.6667 64.3726,-342.3333 64.3726,-342.3333 64.3726,-349.6667 64.3726,-349.6667 64.3726,-353.3333 60.7059,-357 57.0392,-357"/>
<text text-anchor="middle" x="32.124" y="-341.8" font-family="Arial" font-size="14.00" fill="#c6c5fe">index.ts</text>
</g>
<!-- index.ts&#45;&gt;benchmark.ts -->
<g id="edge10" class="edge">
<title>index.ts&#45;&gt;benchmark.ts</title>
<path fill="none" stroke="#757575" d="M64.4027,-356.7583C75.6404,-360.1603 88.4004,-363.6435 100.248,-366 271.804,-400.1227 479.3776,-404.1837 579.8643,-403.86"/>
<polygon fill="#757575" stroke="#757575" points="580.1412,-407.3588 590.1241,-403.8103 580.1072,-400.3589 580.1412,-407.3588"/>
</g>
<!-- index.ts&#45;&gt;runner.ts -->
<g id="edge13" class="edge">
<title>index.ts&#45;&gt;runner.ts</title>
<path fill="none" stroke="#757575" d="M37.8283,-357.2367C47.7293,-375.39 69.9733,-410.6792 100.248,-426 314.1581,-534.2513 616.4771,-492.1224 730.2105,-470.605"/>
<polygon fill="#757575" stroke="#757575" points="731.148,-473.9887 740.3025,-468.6552 729.8201,-467.1157 731.148,-473.9887"/>
</g>
<!-- index.ts&#45;&gt;tab.ts -->
<g id="edge14" class="edge">
<title>index.ts&#45;&gt;tab.ts</title>
<path fill="none" stroke="#757575" d="M44.61,-357.3072C57.5146,-368.2579 78.7513,-384.3022 100.248,-392 305.6546,-465.554 372.0302,-418.9123 590.1709,-423 634.6227,-423.833 646.7566,-432.4283 690.2051,-423 710.7565,-418.5404 732.2926,-408.7038 748.6262,-400.0257"/>
<polygon fill="#757575" stroke="#757575" points="750.5152,-402.9815 757.5951,-395.0995 747.1452,-396.846 750.5152,-402.9815"/>
</g>
<!-- index.ts&#45;&gt;benchmarks/initial&#45;render&#45;metric.ts -->
<g id="edge11" class="edge">
<title>index.ts&#45;&gt;benchmarks/initial&#45;render&#45;metric.ts</title>
<path fill="none" stroke="#757575" d="M64.3383,-334.8952C75.5709,-331.4655 88.3441,-328.0533 100.248,-326 170.0457,-313.9605 249.0164,-309.0409 313.1213,-307.2081"/>
<polygon fill="#757575" stroke="#757575" points="313.3743,-310.7027 323.2784,-306.9398 313.1894,-303.7051 313.3743,-310.7027"/>
</g>
<!-- index.ts&#45;&gt;util.ts -->
<g id="edge16" class="edge">
<title>index.ts&#45;&gt;util.ts</title>
<path fill="none" stroke="#757575" d="M45.7915,-334.9677C58.9148,-325.0352 79.7216,-310.962 100.248,-304 280.9581,-242.7081 513.6566,-243.9705 602.998,-247.1731"/>
<polygon fill="#757575" stroke="#757575" points="603.0409,-250.6774 613.1696,-247.5693 603.3134,-243.6827 603.0409,-250.6774"/>
</g>
<!-- index.ts&#45;&gt;benchmarks/initial&#45;render.ts -->
<g id="edge12" class="edge">
<title>index.ts&#45;&gt;benchmarks/initial&#45;render.ts</title>
<path fill="none" stroke="#757575" d="M64.4618,-346C72.2464,-346 80.983,-346 90.1459,-346"/>
<polygon fill="#757575" stroke="#757575" points="90.231,-349.5001 100.231,-346 90.231,-342.5001 90.231,-349.5001"/>
</g>
<!-- trace/index.ts -->
<g id="node10" class="node">
<title>trace/index.ts</title>
<path fill="none" stroke="#c6c5fe" d="M818.2647,-127C818.2647,-127 733.4072,-127 733.4072,-127 729.7405,-127 726.0739,-123.3333 726.0739,-119.6667 726.0739,-119.6667 726.0739,-112.3333 726.0739,-112.3333 726.0739,-108.6667 729.7405,-105 733.4072,-105 733.4072,-105 818.2647,-105 818.2647,-105 821.9313,-105 825.598,-108.6667 825.598,-112.3333 825.598,-112.3333 825.598,-119.6667 825.598,-119.6667 825.598,-123.3333 821.9313,-127 818.2647,-127"/>
<text text-anchor="middle" x="775.8359" y="-111.8" font-family="Arial" font-size="14.00" fill="#c6c5fe">trace/index.ts</text>
</g>
<!-- index.ts&#45;&gt;trace/index.ts -->
<g id="edge15" class="edge">
<title>index.ts&#45;&gt;trace/index.ts</title>
<path fill="none" stroke="#757575" d="M37.284,-334.927C46.8233,-315.762 69.1209,-276.5855 100.248,-257 299.7457,-131.4742 591.5718,-115.6059 716.027,-114.9877"/>
<polygon fill="#757575" stroke="#757575" points="716.1269,-118.4876 726.1206,-114.9696 716.1143,-111.4876 716.1269,-118.4876"/>
</g>
<!-- trace/index.ts&#45;&gt;trace/trace.ts -->
<g id="edge22" class="edge">
<title>trace/index.ts&#45;&gt;trace/trace.ts</title>
<path fill="none" stroke="#757575" d="M789.1832,-127.3475C812.4758,-147.1504 860.7232,-188.1694 888.6631,-211.9233"/>
<polygon fill="#757575" stroke="#757575" points="886.7462,-214.8876 896.632,-218.6984 891.2804,-209.5545 886.7462,-214.8876"/>
</g>
<!-- trace/index.ts&#45;&gt;trace/trace_event.ts -->
<g id="edge23" class="edge">
<title>trace/index.ts&#45;&gt;trace/trace_event.ts</title>
<path fill="none" stroke="#757575" d="M790.472,-104.8774C830.1831,-75.8436 944.2137,0 1051.7905,0 1051.7905,0 1051.7905,0 1253.5864,0 1373.6603,0 1404.5554,-28.0129 1509.6992,-86 1543.6717,-104.7359 1577.4576,-134.8186 1597.3193,-153.9838"/>
<polygon fill="#757575" stroke="#757575" points="1594.8702,-156.4841 1604.4607,-160.9867 1599.7712,-151.4861 1594.8702,-156.4841"/>
</g>
<!-- trace/index.ts&#45;&gt;trace/bounds.ts -->
<g id="edge19" class="edge">
<title>trace/index.ts&#45;&gt;trace/bounds.ts</title>
<path fill="none" stroke="#757575" d="M821.9597,-104.9102C865.9545,-94.9641 934.2391,-81.1654 994.3838,-76 1157.5053,-61.9908 1202.1915,-64.3078 1361.9756,-100 1381.3308,-104.3235 1402.1875,-111.5907 1419.1279,-118.2065"/>
<polygon fill="#757575" stroke="#757575" points="1418.024,-121.5345 1428.6086,-121.9993 1420.6241,-115.0353 1418.024,-121.5345"/>
</g>
<!-- trace/index.ts&#45;&gt;trace/process.ts -->
<g id="edge20" class="edge">
<title>trace/index.ts&#45;&gt;trace/process.ts</title>
<path fill="none" stroke="#757575" d="M825.4898,-112.4013C869.8198,-109.1885 935.1342,-104.4547 984.2146,-100.8976"/>
<polygon fill="#757575" stroke="#757575" points="984.7072,-104.3712 994.428,-100.1574 984.2011,-97.3895 984.7072,-104.3712"/>
</g>
<!-- trace/index.ts&#45;&gt;trace/thread.ts -->
<g id="edge21" class="edge">
<title>trace/index.ts&#45;&gt;trace/thread.ts</title>
<path fill="none" stroke="#757575" d="M825.6116,-119.8549C913.1204,-126.6322 1094.3498,-140.6677 1190.4949,-148.1138"/>
<polygon fill="#757575" stroke="#757575" points="1190.4167,-151.6181 1200.6572,-148.9008 1190.9573,-144.639 1190.4167,-151.6181"/>
</g>
<!-- trace/bounds.ts&#45;&gt;trace/trace_event.ts -->
<g id="edge18" class="edge">
<title>trace/bounds.ts&#45;&gt;trace/trace_event.ts</title>
<path fill="none" stroke="#757575" d="M1499.6387,-144.0715C1518.3673,-148.5988 1540.2008,-153.8766 1559.8136,-158.6176"/>
<polygon fill="#757575" stroke="#757575" points="1558.996,-162.0207 1569.5385,-160.9683 1560.6408,-155.2166 1558.996,-162.0207"/>
</g>
<!-- trace/process.ts&#45;&gt;trace/trace_event.ts -->
<g id="edge26" class="edge">
<title>trace/process.ts&#45;&gt;trace/trace_event.ts</title>
<path fill="none" stroke="#757575" d="M1109.4064,-88.7901C1197.7887,-79.7858 1371.1424,-70.3074 1509.6992,-113 1539.9169,-122.3108 1571.1087,-141.1049 1591.6564,-154.9909"/>
<polygon fill="#757575" stroke="#757575" points="1589.8252,-157.9798 1600.0416,-160.7864 1593.8053,-152.2214 1589.8252,-157.9798"/>
</g>
<!-- trace/process.ts&#45;&gt;trace/bounds.ts -->
<g id="edge24" class="edge">
<title>trace/process.ts&#45;&gt;trace/bounds.ts</title>
<path fill="none" stroke="#757575" d="M1109.394,-101.3012C1183.0585,-108.0805 1310.3367,-119.7938 1387.8316,-126.9255"/>
<polygon fill="#757575" stroke="#757575" points="1387.6806,-130.4264 1397.9593,-127.8576 1388.3221,-123.4558 1387.6806,-130.4264"/>
</g>
<!-- trace/process.ts&#45;&gt;trace/thread.ts -->
<g id="edge25" class="edge">
<title>trace/process.ts&#45;&gt;trace/thread.ts</title>
<path fill="none" stroke="#757575" d="M1081.4091,-107.0241C1099.653,-113.5947 1123.6061,-121.8294 1145.1973,-128 1159.7559,-132.1607 1175.564,-136.1179 1190.4905,-139.6059"/>
<polygon fill="#757575" stroke="#757575" points="1190.1274,-143.1137 1200.6573,-141.9425 1191.6953,-136.2915 1190.1274,-143.1137"/>
</g>
<!-- trace/thread.ts&#45;&gt;trace/trace_event.ts -->
<g id="edge28" class="edge">
<title>trace/thread.ts&#45;&gt;trace/trace_event.ts</title>
<path fill="none" stroke="#757575" d="M1306.5517,-155.7831C1366.8484,-158.9515 1465.9826,-164.1606 1535.5889,-167.8181"/>
<polygon fill="#757575" stroke="#757575" points="1535.4664,-171.3164 1545.6363,-168.346 1535.8337,-164.326 1535.4664,-171.3164"/>
</g>
<!-- trace/thread.ts&#45;&gt;trace/bounds.ts -->
<g id="edge27" class="edge">
<title>trace/thread.ts&#45;&gt;trace/bounds.ts</title>
<path fill="none" stroke="#757575" d="M1306.462,-147.7191C1331.3201,-145.2364 1361.2198,-142.2502 1387.5724,-139.6182"/>
<polygon fill="#757575" stroke="#757575" points="1388.2566,-143.0674 1397.8593,-138.5908 1387.5609,-136.102 1388.2566,-143.0674"/>
</g>
<!-- trace/trace_event_comparator.ts&#45;&gt;trace/trace_event.ts -->
<g id="edge34" class="edge">
<title>trace/trace_event_comparator.ts&#45;&gt;trace/trace_event.ts</title>
<path fill="none" stroke="#757575" d="M1362.1316,-290.7319C1409.1154,-288.7694 1463.7515,-281.5266 1509.6992,-262 1546.8597,-246.2077 1580.6052,-212.4727 1599.4577,-191.0873"/>
<polygon fill="#757575" stroke="#757575" points="1602.2903,-193.161 1606.1511,-183.2946 1596.9803,-188.5999 1602.2903,-193.161"/>
</g>
</g>
</svg>
